<svg width="400" height="400" xmlns="http://www.w3.org/2000/svg" clip-rule="evenodd">
 <!-- Created with Method Draw - http://github.com/duopixel/Method-Draw/ -->
 <g>
  <title>Layer 1</title>
  <g stroke="null" id="svg_7" fill-rule="nonzero" clip-path="url(#b)">
   <path stroke="null" id="svg_5" d="m172.731344,0.816752c-13.48,2.18 -23.974,4.682 -36.082,8.718c-49.562,16.386 -91.537,52.549 -115.269,99.125c-10.736,21.149 -16.952,41.007 -20.18,64.173c-2.018,14.127 -1.373,49.482 1.049,62.156c11.22,58.361 44.074,106.228 93.475,136.579c19.857,12.108 45.365,22.118 64.496,25.266c2.26,0.403 7.507,1.291 11.704,1.937c5.57,0.969 13.4,1.292 28.656,1.292c20.423,0 22.037,-0.162 39.553,-3.148c35.275,-6.054 74.344,-27.123 102.112,-54.891c28.737,-28.736 46.98,-63.123 55.456,-104.21c1.937,-9.202 2.179,-12.189 2.502,-34.064c0.242,-19.616 0.081,-25.589 -1.05,-32.692c-6.78,-43.832 -26.153,-82.336 -56.988,-113.171c-24.378,-24.378 -55.294,-42.459 -87.905,-51.419c-19.373,-5.409 -25.347,-6.135 -51.258,-6.377c-16.709,-0.242 -25.347,0 -30.271,0.726zm143.199,68.613c-0.242,0.646 -2.502,2.745 -4.924,4.601c-8.072,6.054 -9.444,13.642 -4.601,24.943c2.18,5.247 2.26,5.327 2.825,29.463c0.323,13.319 0.969,30.27 1.453,37.697c1.211,19.373 -0.242,32.611 -3.955,34.548c-2.018,1.05 -8.314,1.05 -10.736,-0.081c-4.843,-2.179 -5.892,-12.431 -4.682,-44.719c0.565,-13.319 1.05,-30.028 1.13,-37.132c0.243,-12.269 0.404,-13.157 2.503,-17.758c2.26,-4.843 3.309,-13.158 1.856,-14.611c-0.888,-0.888 -4.762,1.373 -11.462,6.539c-3.067,2.421 -9.767,7.507 -14.772,11.301c-10.655,8.153 -14.691,12.027 -14.691,14.045c0,0.888 1.291,6.054 2.906,11.543c5.005,16.871 4.601,24.782 -1.857,37.132c-2.906,5.65 -6.619,9.444 -17.435,18.243c-9.848,7.991 -13.4,14.207 -12.351,21.714c1.05,7.91 5.166,12.673 20.907,24.297c5.812,4.359 12.189,9.686 14.126,11.866c7.023,7.991 10.655,18.888 10.655,32.288c0,14.691 -4.036,25.185 -13.157,34.226c-6.135,6.054 -9.202,8.152 -17.759,12.188c-17.355,8.315 -42.701,11.705 -62.72,8.476c-30.19,-4.924 -51.338,-19.857 -54.809,-38.746c-2.906,-15.66 9.928,-36.001 28.898,-45.849c12.673,-6.619 33.015,-10.978 51.177,-11.059c2.986,0 5.408,-0.162 5.408,-0.323c0,-0.242 -1.13,-2.099 -2.502,-4.117c-5.247,-7.749 -7.669,-19.534 -5.328,-25.83c0.646,-1.776 1.453,-3.875 1.776,-4.682c0.484,-1.211 0,-1.372 -5.489,-1.372c-17.516,0 -33.58,-6.055 -43.347,-16.225c-6.942,-7.265 -12.835,-20.988 -14.207,-33.096l-0.565,-4.762l-27.929,0l-27.93,-0.081l2.906,-2.583c1.614,-1.453 16.144,-14.046 32.288,-28.091c16.225,-14.046 34.468,-29.948 40.603,-35.356l11.139,-9.767l72.569,0c62.881,0 72.487,0.161 72.083,1.13z"/>
   <path stroke="null" id="svg_6" d="m184.436344,101.798752c-18.243,6.781 -25.346,33.096 -15.256,57.15c5.489,13.077 16.628,25.589 27.687,31.078c5.57,2.745 6.619,2.987 12.915,2.987c5.651,0 7.588,-0.323 10.413,-1.857c7.83,-4.197 14.369,-13.319 17.032,-23.732c1.292,-5.085 1.453,-7.345 0.888,-15.983c-0.968,-16.063 -5.973,-27.041 -17.355,-38.503c-9.121,-9.203 -14.772,-11.866 -25.427,-12.109c-5.166,-0.161 -8.718,0.243 -10.897,0.969z"/>
   <path stroke="null" id="svg_7" d="m194.930344,241.122752c-17.92,2.422 -33.499,10.252 -40.119,20.181c-4.601,6.942 -5.731,11.462 -5.327,21.068c0.403,10.655 2.664,15.66 10.251,23.328c6.377,6.377 15.257,11.059 26.315,13.723c10.09,2.502 26.961,2.502 36.325,0c23.974,-6.297 36.566,-21.876 33.499,-41.41c-2.18,-14.288 -9.283,-23.086 -24.62,-30.513c-11.947,-5.812 -24.378,-7.991 -36.324,-6.377z"/>
  </g>
 </g>
</svg>